<svg xmlns="http://www.w3.org/2000/svg" viewBox="0 0 200 200">
  <defs>
    <linearGradient id="grad1" x1="0%" y1="0%" x2="100%" y2="100%">
      <stop offset="0%" style="stop-color:#ffffff;stop-opacity:1" />
      <stop offset="100%" style="stop-color:#e0e0e0;stop-opacity:1" />
    </linearGradient>
  </defs>
  <circle cx="100" cy="100" r="90" fill="url(#grad1)" fill-opacity="0.1"/>
  <path fill="#ffffff" d="M84.5,63.8c0-2.2,1.8-4,4-4h38c2.2,0,4,1.8,4,4v58.4c0,14.3-11.7,26-26,26s-26-11.7-26-26c0-9.9,5.6-18.6,13.8-23V63.8z M104.5,130.2c0,7.7,6.3,14,14,14s14-6.3,14-14V71.8H84.5V130.2z M130.5,71.8v30.5c0,2.2-1.8,4-4,4s-4-1.8-4-4V71.8H130.5z"/>
  <path fill="#ffffff" d="M50,100c0,0,20-30,50-30s50,30,50,30s-20,30-50,30S50,100,50,100z" opacity="0.5"/>
</svg>
